<svg width="24" height="25" viewBox="0 0 24 25" fill="none" xmlns="http://www.w3.org/2000/svg">
<path d="M12.3139 6.93443L11.6641 6.30398C11.5296 6.17347 11.4001 6.04842 11.2744 5.92694C11.0546 5.71459 10.846 5.51315 10.6414 5.31251C9.00066 3.70473 6.74229 3.24953 4.93293 4.03076L4.93277 4.03083C3.11901 4.81354 1.85696 6.80701 1.90105 9.03884L1.90105 9.0389C1.93436 10.7307 2.64321 12.2309 3.67628 13.7151L3.67657 13.7155C5.9314 16.9588 8.9903 19.395 12.2533 21.7809C14.6307 20.0499 16.895 18.2636 18.8502 16.1485L19.5111 16.7594L18.8502 16.1485C20.5093 14.3537 21.8745 12.5382 22.4325 10.2902L22.4325 10.29C23.0206 7.92333 22.0148 5.45777 20.1001 4.30561L12.3139 6.93443ZM12.3139 6.93443L12.9405 6.28081M12.3139 6.93443L12.9405 6.28081M12.9405 6.28081C13.0846 6.13044 13.212 5.99234 13.3317 5.8625C13.5615 5.61331 13.7632 5.39452 14.0019 5.17777L14.0022 5.17745M12.9405 6.28081L14.0022 5.17745M14.0022 5.17745C15.8652 3.48351 18.2782 3.21 20.0999 4.30551L14.0022 5.17745Z" stroke="black" stroke-width="1.8"/>
</svg>
