<?xml version="1.0" encoding="utf-8"?>
<svg viewBox="0 0 74 76" fill="none" xmlns="http://www.w3.org/2000/svg">
  <path fill-rule="evenodd" clip-rule="evenodd" d="M 36.787 9.152 C 20.719 9.152 7.693 22.177 7.693 38.245 C 7.693 54.313 20.719 67.338 36.787 67.338 C 52.855 67.338 65.88 54.313 65.88 38.245 C 65.88 22.177 52.855 9.152 36.787 9.152 Z M 1.228 38.245 C 1.228 18.607 17.148 2.687 36.787 2.687 C 56.425 2.687 72.345 18.607 72.345 38.245 C 72.345 57.883 56.425 73.803 36.787 73.803 C 17.148 73.803 1.228 57.883 1.228 38.245 Z" fill="black"/>
  <path fill-rule="evenodd" clip-rule="evenodd" d="M 54.526 26.19 C 55.474 23.205 52.643 20.401 49.667 21.377 L 29.397 28.028 C 28.224 28.413 27.307 29.339 26.933 30.516 L 20.653 50.3 C 19.705 53.285 22.536 56.089 25.512 55.113 L 45.781 48.461 C 46.955 48.076 47.871 47.151 48.245 45.974 L 54.526 26.19 Z M 37.586 42.863 C 40.136 42.863 42.203 40.795 42.203 38.245 C 42.203 35.694 40.136 33.627 37.586 33.627 C 35.035 33.627 32.968 35.694 32.968 38.245 C 32.968 40.795 35.035 42.863 37.586 42.863 Z" fill="black"/>
</svg>